<mxfile host="app.diagrams.net" modified="2023-08-22T02:50:05.203Z" agent="Mozilla/5.0 (Windows NT 10.0; Win64; x64) AppleWebKit/537.36 (KHTML, like Gecko) Chrome/116.0.0.0 Safari/537.36" etag="ZlrMd1Vxgu5PplCi-QFP" version="21.6.8" type="github">
  <diagram name="第 1 页" id="3qVsrM4QdKipvw_rmsTS">
    <mxGraphModel dx="954" dy="570" grid="1" gridSize="10" guides="1" tooltips="1" connect="1" arrows="1" fold="1" page="1" pageScale="1" pageWidth="827" pageHeight="1169" math="0" shadow="0">
      <root>
        <mxCell id="0" />
        <mxCell id="1" parent="0" />
        <mxCell id="1GQmCxUvFz1v47MvvGqI-43" value="" style="rounded=0;whiteSpace=wrap;html=1;dashed=1;fillColor=#dae8fc;strokeColor=#6c8ebf;" parent="1" vertex="1">
          <mxGeometry x="584" y="500" width="266" height="410" as="geometry" />
        </mxCell>
        <mxCell id="1GQmCxUvFz1v47MvvGqI-7" value="" style="edgeStyle=orthogonalEdgeStyle;rounded=0;orthogonalLoop=1;jettySize=auto;html=1;fillColor=#fad7ac;strokeColor=#b46504;" parent="1" source="1GQmCxUvFz1v47MvvGqI-5" target="1GQmCxUvFz1v47MvvGqI-6" edge="1">
          <mxGeometry relative="1" as="geometry" />
        </mxCell>
        <mxCell id="1GQmCxUvFz1v47MvvGqI-5" value="用户" style="rounded=0;whiteSpace=wrap;html=1;fontStyle=1;fillColor=#fad7ac;strokeColor=#b46504;" parent="1" vertex="1">
          <mxGeometry x="70" y="190" width="90" height="40" as="geometry" />
        </mxCell>
        <mxCell id="1GQmCxUvFz1v47MvvGqI-11" value="" style="edgeStyle=orthogonalEdgeStyle;rounded=0;orthogonalLoop=1;jettySize=auto;html=1;fillColor=#fad7ac;strokeColor=#b46504;" parent="1" source="1GQmCxUvFz1v47MvvGqI-6" target="1GQmCxUvFz1v47MvvGqI-10" edge="1">
          <mxGeometry relative="1" as="geometry" />
        </mxCell>
        <mxCell id="1GQmCxUvFz1v47MvvGqI-6" value="路侧OS（Edge）" style="whiteSpace=wrap;html=1;rounded=0;fontStyle=1;fillColor=#fad7ac;strokeColor=#b46504;" parent="1" vertex="1">
          <mxGeometry x="240" y="190" width="100" height="40" as="geometry" />
        </mxCell>
        <mxCell id="1GQmCxUvFz1v47MvvGqI-19" style="edgeStyle=orthogonalEdgeStyle;rounded=0;orthogonalLoop=1;jettySize=auto;html=1;exitX=1;exitY=0.5;exitDx=0;exitDy=0;entryX=0;entryY=0.5;entryDx=0;entryDy=0;" parent="1" source="1GQmCxUvFz1v47MvvGqI-10" target="1GQmCxUvFz1v47MvvGqI-14" edge="1">
          <mxGeometry relative="1" as="geometry" />
        </mxCell>
        <mxCell id="1GQmCxUvFz1v47MvvGqI-10" value="用户中心" style="whiteSpace=wrap;html=1;rounded=0;fontStyle=1;fillColor=#fad7ac;strokeColor=#b46504;" parent="1" vertex="1">
          <mxGeometry x="414" y="190" width="90" height="40" as="geometry" />
        </mxCell>
        <mxCell id="1GQmCxUvFz1v47MvvGqI-14" value="算法标注平台" style="whiteSpace=wrap;html=1;rounded=0;fontStyle=1;fillColor=#dae8fc;strokeColor=#6c8ebf;" parent="1" vertex="1">
          <mxGeometry x="612" y="185" width="180" height="50" as="geometry" />
        </mxCell>
        <mxCell id="1GQmCxUvFz1v47MvvGqI-24" style="edgeStyle=orthogonalEdgeStyle;rounded=0;orthogonalLoop=1;jettySize=auto;html=1;entryX=0;entryY=0.5;entryDx=0;entryDy=0;fillColor=#d5e8d4;strokeColor=#82b366;" parent="1" source="1GQmCxUvFz1v47MvvGqI-16" target="1GQmCxUvFz1v47MvvGqI-17" edge="1">
          <mxGeometry relative="1" as="geometry" />
        </mxCell>
        <mxCell id="1GQmCxUvFz1v47MvvGqI-16" value="用户登录&lt;br&gt;门户登录页面" style="rounded=1;whiteSpace=wrap;html=1;fillColor=#d5e8d4;strokeColor=#82b366;" parent="1" vertex="1">
          <mxGeometry x="75" y="270" width="80" height="40" as="geometry" />
        </mxCell>
        <mxCell id="1GQmCxUvFz1v47MvvGqI-20" style="edgeStyle=orthogonalEdgeStyle;rounded=0;orthogonalLoop=1;jettySize=auto;html=1;exitX=0.5;exitY=1;exitDx=0;exitDy=0;entryX=0.5;entryY=0;entryDx=0;entryDy=0;fillColor=#d5e8d4;strokeColor=#82b366;" parent="1" source="1GQmCxUvFz1v47MvvGqI-17" target="1GQmCxUvFz1v47MvvGqI-18" edge="1">
          <mxGeometry relative="1" as="geometry" />
        </mxCell>
        <mxCell id="1GQmCxUvFz1v47MvvGqI-17" value="调用户中心&lt;br&gt;登录接口" style="rounded=1;whiteSpace=wrap;html=1;fillColor=#d5e8d4;strokeColor=#82b366;" parent="1" vertex="1">
          <mxGeometry x="419" y="270" width="80" height="40" as="geometry" />
        </mxCell>
        <mxCell id="1GQmCxUvFz1v47MvvGqI-22" style="edgeStyle=orthogonalEdgeStyle;rounded=0;orthogonalLoop=1;jettySize=auto;html=1;exitX=0.5;exitY=1;exitDx=0;exitDy=0;fillColor=#d5e8d4;strokeColor=#82b366;" parent="1" source="1GQmCxUvFz1v47MvvGqI-18" target="1GQmCxUvFz1v47MvvGqI-21" edge="1">
          <mxGeometry relative="1" as="geometry" />
        </mxCell>
        <mxCell id="1GQmCxUvFz1v47MvvGqI-18" value="登录成功" style="rounded=1;whiteSpace=wrap;html=1;fillColor=#d5e8d4;strokeColor=#82b366;" parent="1" vertex="1">
          <mxGeometry x="245" y="350" width="80" height="40" as="geometry" />
        </mxCell>
        <mxCell id="1GQmCxUvFz1v47MvvGqI-26" value="" style="edgeStyle=orthogonalEdgeStyle;rounded=0;orthogonalLoop=1;jettySize=auto;html=1;fillColor=#d5e8d4;strokeColor=#82b366;" parent="1" source="1GQmCxUvFz1v47MvvGqI-21" target="1GQmCxUvFz1v47MvvGqI-25" edge="1">
          <mxGeometry relative="1" as="geometry" />
        </mxCell>
        <mxCell id="1GQmCxUvFz1v47MvvGqI-21" value="进入业务系统首页" style="rounded=1;whiteSpace=wrap;html=1;fillColor=#d5e8d4;strokeColor=#82b366;" parent="1" vertex="1">
          <mxGeometry x="245" y="440" width="80" height="40" as="geometry" />
        </mxCell>
        <mxCell id="1GQmCxUvFz1v47MvvGqI-28" value="" style="edgeStyle=orthogonalEdgeStyle;rounded=0;orthogonalLoop=1;jettySize=auto;html=1;" parent="1" source="1GQmCxUvFz1v47MvvGqI-25" target="1GQmCxUvFz1v47MvvGqI-27" edge="1">
          <mxGeometry relative="1" as="geometry" />
        </mxCell>
        <mxCell id="1GQmCxUvFz1v47MvvGqI-25" value="点击AI服务菜单" style="rounded=1;whiteSpace=wrap;html=1;fillColor=#d5e8d4;strokeColor=#82b366;" parent="1" vertex="1">
          <mxGeometry x="245" y="530" width="80" height="40" as="geometry" />
        </mxCell>
        <mxCell id="1GQmCxUvFz1v47MvvGqI-36" value="" style="edgeStyle=orthogonalEdgeStyle;rounded=0;orthogonalLoop=1;jettySize=auto;html=1;" parent="1" source="1GQmCxUvFz1v47MvvGqI-27" target="1GQmCxUvFz1v47MvvGqI-35" edge="1">
          <mxGeometry relative="1" as="geometry" />
        </mxCell>
        <mxCell id="1GQmCxUvFz1v47MvvGqI-27" value="根据token调用新智接口查询用户" style="rounded=1;whiteSpace=wrap;html=1;" parent="1" vertex="1">
          <mxGeometry x="607" y="525" width="114" height="50" as="geometry" />
        </mxCell>
        <mxCell id="1GQmCxUvFz1v47MvvGqI-38" value="" style="edgeStyle=orthogonalEdgeStyle;rounded=0;orthogonalLoop=1;jettySize=auto;html=1;" parent="1" source="1GQmCxUvFz1v47MvvGqI-35" target="1GQmCxUvFz1v47MvvGqI-37" edge="1">
          <mxGeometry relative="1" as="geometry" />
        </mxCell>
        <mxCell id="1GQmCxUvFz1v47MvvGqI-39" value="否" style="edgeLabel;html=1;align=center;verticalAlign=middle;resizable=0;points=[];" parent="1GQmCxUvFz1v47MvvGqI-38" vertex="1" connectable="0">
          <mxGeometry x="-0.1333" relative="1" as="geometry">
            <mxPoint as="offset" />
          </mxGeometry>
        </mxCell>
        <mxCell id="1GQmCxUvFz1v47MvvGqI-41" value="" style="edgeStyle=orthogonalEdgeStyle;rounded=0;orthogonalLoop=1;jettySize=auto;html=1;" parent="1" source="1GQmCxUvFz1v47MvvGqI-35" target="1GQmCxUvFz1v47MvvGqI-40" edge="1">
          <mxGeometry relative="1" as="geometry">
            <Array as="points">
              <mxPoint x="664" y="730" />
              <mxPoint x="726" y="730" />
            </Array>
          </mxGeometry>
        </mxCell>
        <mxCell id="1GQmCxUvFz1v47MvvGqI-42" value="是" style="edgeLabel;html=1;align=center;verticalAlign=middle;resizable=0;points=[];" parent="1GQmCxUvFz1v47MvvGqI-41" vertex="1" connectable="0">
          <mxGeometry x="-0.4667" y="2" relative="1" as="geometry">
            <mxPoint as="offset" />
          </mxGeometry>
        </mxCell>
        <mxCell id="1GQmCxUvFz1v47MvvGqI-35" value="根据返回结果校验用户在算法标平台是否存在" style="rhombus;whiteSpace=wrap;html=1;rounded=1;" parent="1" vertex="1">
          <mxGeometry x="612" y="600" width="104" height="105" as="geometry" />
        </mxCell>
        <mxCell id="1GQmCxUvFz1v47MvvGqI-48" style="edgeStyle=orthogonalEdgeStyle;rounded=0;orthogonalLoop=1;jettySize=auto;html=1;exitX=0.5;exitY=1;exitDx=0;exitDy=0;entryX=0.5;entryY=0;entryDx=0;entryDy=0;endArrow=none;endFill=0;" parent="1" source="1GQmCxUvFz1v47MvvGqI-37" target="1GQmCxUvFz1v47MvvGqI-40" edge="1">
          <mxGeometry relative="1" as="geometry">
            <Array as="points">
              <mxPoint x="779" y="730" />
              <mxPoint x="719" y="730" />
            </Array>
          </mxGeometry>
        </mxCell>
        <mxCell id="1GQmCxUvFz1v47MvvGqI-37" value="算法标平台创建用户" style="whiteSpace=wrap;html=1;rounded=1;" parent="1" vertex="1">
          <mxGeometry x="750" y="628.75" width="83" height="47.5" as="geometry" />
        </mxCell>
        <mxCell id="1GQmCxUvFz1v47MvvGqI-50" value="" style="edgeStyle=orthogonalEdgeStyle;rounded=0;orthogonalLoop=1;jettySize=auto;html=1;" parent="1" source="1GQmCxUvFz1v47MvvGqI-40" target="1GQmCxUvFz1v47MvvGqI-49" edge="1">
          <mxGeometry relative="1" as="geometry" />
        </mxCell>
        <mxCell id="1GQmCxUvFz1v47MvvGqI-40" value="执行平台&lt;br&gt;登录逻辑" style="whiteSpace=wrap;html=1;rounded=1;" parent="1" vertex="1">
          <mxGeometry x="670" y="770" width="111" height="40" as="geometry" />
        </mxCell>
        <mxCell id="1GQmCxUvFz1v47MvvGqI-44" value="" style="endArrow=none;html=1;rounded=0;dashed=1;" parent="1" edge="1">
          <mxGeometry width="50" height="50" relative="1" as="geometry">
            <mxPoint x="370" y="980" as="sourcePoint" />
            <mxPoint x="370" y="100" as="targetPoint" />
          </mxGeometry>
        </mxCell>
        <mxCell id="1GQmCxUvFz1v47MvvGqI-45" value="" style="endArrow=none;html=1;rounded=0;dashed=1;" parent="1" edge="1">
          <mxGeometry width="50" height="50" relative="1" as="geometry">
            <mxPoint x="200" y="980" as="sourcePoint" />
            <mxPoint x="200" y="100" as="targetPoint" />
          </mxGeometry>
        </mxCell>
        <mxCell id="1GQmCxUvFz1v47MvvGqI-46" value="" style="endArrow=none;html=1;rounded=0;dashed=1;" parent="1" edge="1">
          <mxGeometry width="50" height="50" relative="1" as="geometry">
            <mxPoint x="30" y="980" as="sourcePoint" />
            <mxPoint x="30" y="100" as="targetPoint" />
          </mxGeometry>
        </mxCell>
        <mxCell id="1GQmCxUvFz1v47MvvGqI-47" value="" style="endArrow=none;html=1;rounded=0;dashed=1;" parent="1" edge="1">
          <mxGeometry width="50" height="50" relative="1" as="geometry">
            <mxPoint x="540" y="980" as="sourcePoint" />
            <mxPoint x="540" y="100" as="targetPoint" />
          </mxGeometry>
        </mxCell>
        <mxCell id="1GQmCxUvFz1v47MvvGqI-49" value="访问系统页面" style="whiteSpace=wrap;html=1;rounded=1;" parent="1" vertex="1">
          <mxGeometry x="670" y="850" width="111" height="40" as="geometry" />
        </mxCell>
        <mxCell id="1GQmCxUvFz1v47MvvGqI-53" value="" style="endArrow=none;html=1;rounded=0;dashed=1;" parent="1" edge="1">
          <mxGeometry width="50" height="50" relative="1" as="geometry">
            <mxPoint x="900" y="985" as="sourcePoint" />
            <mxPoint x="900" y="105" as="targetPoint" />
          </mxGeometry>
        </mxCell>
      </root>
    </mxGraphModel>
  </diagram>
</mxfile>
